# xmcd CD database file generated by MAGIX-FreeDB-MusicFinder_base v2.0beta1
# 
# Track frame offsets:
#      183
#      17958
#      46333
#      60795
#      76045
#      91770
#      107933
#      120020
#      138370
#      150483
#      169733
# 
# Disc length: 2445 seconds
# 
# Revision: 0 
# Processed by: cddbd v1.5.2PL0 Copyright (c) Steve Scherf et al.
# Submitted via: MAGIX-FreeDB-MusicFinder_base v2.0beta1
# 
DISCID=72098b0b
DTITLE=HERZBLATT - HERZBLATT-GESCHICHTEN DER BERGE
DYEAR=1989
DGENRE=
TTITLE0=HERZBLATT - GESCHICHTEN DER BERGE
TTITLE1=SONNWENDFEUER
TTITLE2=MEI HERZERL MACHT LEISE BUM BUM
TTITLE3=DER HARMONIKA FRANZ
TTITLE4=KLOANE LEUT
TTITLE5=AVE MARIA DER BERGE
TTITLE6=A BISSERL GLÜCK BRAUCHT JEDER
TTITLE7=DREI KLEINE WÜNSCHE
TTITLE8=DIE KLEINEN DINGE DES LEBENS
TTITLE9=OANER IS OIWEI DA
TTITLE10=AUF DEM BERG SIND ALLE GLEICH
EXTD=
EXTT0=
EXTT1=
EXTT2=
EXTT3=
EXTT4=
EXTT5=
EXTT6=
EXTT7=
EXTT8=
EXTT9=
EXTT10=
PLAYORDER=
